<svg width="1600" height="520" viewBox="0 0 1600 520" fill="none" xmlns="http://www.w3.org/2000/svg">
  <defs>
    <linearGradient id="bg" x1="0" y1="0" x2="1600" y2="520" gradientUnits="userSpaceOnUse">
      <stop stop-color="#050816"/>
      <stop offset="0.52" stop-color="#101827"/>
      <stop offset="1" stop-color="#08111f"/>
    </linearGradient>
    <linearGradient id="cyan" x1="0" y1="0" x2="1" y2="1">
      <stop stop-color="#38bdf8"/>
      <stop offset="1" stop-color="#a78bfa"/>
    </linearGradient>
    <filter id="glow" x="-50%" y="-50%" width="200%" height="200%">
      <feGaussianBlur stdDeviation="10" result="blur"/>
      <feMerge>
        <feMergeNode in="blur"/>
        <feMergeNode in="SourceGraphic"/>
      </feMerge>
    </filter>
  </defs>
  <rect width="1600" height="520" rx="34" fill="url(#bg)"/>
  <circle cx="1290" cy="130" r="210" fill="#38bdf8" opacity="0.12"/>
  <circle cx="1420" cy="340" r="170" fill="#a78bfa" opacity="0.12"/>
  <circle cx="290" cy="420" r="260" fill="#14b8a6" opacity="0.08"/>

  <g opacity="0.18" stroke="#93c5fd" stroke-width="2">
    <path d="M1090 95 C1150 155 1150 245 1090 305"/>
    <path d="M1190 95 C1130 155 1130 245 1190 305"/>
    <path d="M1098 132 H1182"/><path d="M1082 184 H1202"/><path d="M1098 236 H1182"/><path d="M1088 286 H1192"/>
  </g>

  <g filter="url(#glow)">
    <circle cx="1170" cy="165" r="8" fill="#38bdf8"/>
    <circle cx="1260" cy="245" r="7" fill="#a78bfa"/>
    <circle cx="1360" cy="155" r="6" fill="#22d3ee"/>
    <circle cx="1395" cy="300" r="8" fill="#818cf8"/>
    <path d="M1170 165 L1260 245 L1360 155 L1395 300" stroke="url(#cyan)" stroke-width="3" opacity="0.8"/>
  </g>

  <text x="90" y="145" fill="#e5e7eb" font-family="Inter,Segoe UI,Arial" font-size="52" font-weight="800">Dr. Joy Karmakar</text>
  <text x="94" y="205" fill="#38bdf8" font-family="Inter,Segoe UI,Arial" font-size="28" font-weight="700">AI Infrastructure for Molecular Discovery</text>
  <text x="94" y="265" fill="#cbd5e1" font-family="Inter,Segoe UI,Arial" font-size="24">Medicinal Chemistry · Chemical Biology · Molecular Sensing · Open Science</text>
  <text x="94" y="336" fill="#94a3b8" font-family="Inter,Segoe UI,Arial" font-size="20">SensorGenome · DyeMind · AZAI · NarcoticSense AI · QSAR · BimaneDB</text>

  <rect x="92" y="380" width="410" height="54" rx="27" fill="rgba(56,189,248,0.12)" stroke="#38bdf8" opacity="0.9"/>
  <text x="122" y="415" fill="#e0f2fe" font-family="Inter,Segoe UI,Arial" font-size="20" font-weight="700">Open standards → active learning → validation</text>
</svg>
